<svg viewBox="0 0 511.999 511.999" xmlns="http://www.w3.org/2000/svg" xmlns:xlink="http://www.w3.org/1999/xlink" id="Capa_1" xml:space="preserve" overflow="hidden"><g><g><path d="M437.345 186.893 427.303 196.942C425.95 198.283 424.608 199.454 423.272 200.533 434.833 226.428 441.326 255.073 441.326 285.218 441.326 400.134 347.83 493.623 232.909 493.623 117.981 493.623 24.486 400.134 24.486 285.218 24.486 170.314 117.982 76.832 232.909 76.832 256.847 76.832 279.827 80.942 301.259 88.398L301.259 88.391C303.301 85.147 305.685 81.916 308.948 78.629L314.106 73.464C288.887 63.788 261.529 58.434 232.915 58.434 107.665 58.442 6.097 159.979 6.097 285.211 6.097 410.462 107.665 511.999 232.91 511.999 358.173 511.999 459.717 410.461 459.717 285.211 459.716 249.993 451.687 216.635 437.345 186.893Z" stroke="none" stroke-width="1" stroke-linecap="butt" stroke-linejoin="miter" stroke-miterlimit="4" fill="#02375A" fill-opacity="1"/></g></g><g><g><path d="M371.921 214.587 351.306 214.587C361.793 233.763 367.763 255.738 367.763 279.084 367.763 353.44 307.266 413.931 232.909 413.931 158.547 413.931 98.05 353.439 98.05 279.084 98.049 204.738 158.546 144.248 232.909 144.248 253.811 144.248 273.627 149.028 291.302 157.559L291.302 137.414C273.302 129.988 253.585 125.86 232.909 125.86 148.267 125.86 79.654 194.467 79.654 279.085 79.654 363.703 148.266 432.322 232.909 432.322 317.533 432.322 386.158 363.703 386.158 279.085 386.159 256.036 381.031 234.196 371.921 214.587Z" stroke="none" stroke-width="1" stroke-linecap="butt" stroke-linejoin="miter" stroke-miterlimit="4" fill="#02375A" fill-opacity="1"/></g></g><g><g><path d="M504.47 75.794C503.037 73.013 500.72 71.069 498.428 69.897 496.117 68.714 493.757 68.159 491.343 67.91L447.57 63.544C446.679 63.477 445.277 62.861 444.18 61.74 443.058 60.642 442.442 59.24 442.381 58.35L437.997 14.56C437.655 11.359 436.808 8.176 434.577 5.213 433.467 3.749 431.949 2.384 430.113 1.433 428.283 0.482 426.174-0.006 424.187-4.21885e-15 421.632 0.007 419.364 0.725 417.456 1.707 415.547 2.707 413.926 3.987 412.462 5.444L324.113 93.793C320.522 97.433 317.967 101.811 316.003 106.493 314.089 111.194 312.79 116.103 312.753 121.218L312.753 171.673C312.765 175.13 313.656 178.35 315.113 181.24L277.097 220.39C264.78 211.11 249.52 205.531 232.91 205.531 192.277 205.531 159.352 238.468 159.352 279.082 159.352 319.696 192.277 352.633 232.91 352.633 273.524 352.633 306.468 319.696 306.468 279.082 306.468 261.705 300.402 245.76 290.317 233.17L329.693 192.629C331.157 192.94 332.657 193.123 334.217 193.129L384.702 193.129C389.817 193.093 394.726 191.8 399.42 189.885 404.109 187.915 408.486 185.361 412.132 181.77L500.463 93.445C501.92 91.981 503.194 90.36 504.195 88.446 505.177 86.537 505.902 84.27 505.902 81.721 505.921 79.739 505.433 77.624 504.47 75.794ZM232.91 334.252C202.485 334.252 177.735 309.509 177.735 279.089 177.735 248.676 202.484 223.926 232.91 223.926 244.514 223.926 255.281 227.548 264.176 233.693L226.312 272.691C222.775 276.331 222.861 282.154 226.502 285.69 230.142 289.227 235.971 289.141 239.508 285.5L277.348 246.538C284.06 255.673 288.078 266.904 288.078 279.087 288.078 309.509 263.329 334.252 232.91 334.252ZM331.155 164.742 331.155 121.226C331.119 119.604 331.783 116.427 333.009 113.537 334.174 110.635 335.954 107.921 337.131 106.799L420.432 23.505 424.097 60.192C424.353 62.661 425.06 64.948 425.999 67.088L331.155 164.742ZM399.133 168.778C397.999 169.949 395.297 171.723 392.395 172.9 389.505 174.126 386.329 174.79 384.706 174.754L347.061 174.754 439.063 80.015C441.148 80.906 443.349 81.582 445.745 81.838L482.414 85.496 399.133 168.778Z" stroke="none" stroke-width="1" stroke-linecap="butt" stroke-linejoin="miter" stroke-miterlimit="4" fill="#02375A" fill-opacity="1"/></g></g><g></g><g></g><g></g><g></g><g></g><g></g><g></g><g></g><g></g><g></g><g></g><g></g><g></g><g></g><g></g></svg>